<?xml version="1.0" standalone="no"?>
<!DOCTYPE svg PUBLIC "-//W3C//DTD SVG 20010904//EN"
 "http://www.w3.org/TR/2001/REC-SVG-20010904/DTD/svg10.dtd">
<svg version="1.0" xmlns="http://www.w3.org/2000/svg"
 width="240.000000pt" height="240.000000pt" viewBox="0 0 240.000000 240.000000"
 preserveAspectRatio="xMidYMid meet">
<metadata>
Created by potrace 1.16, written by Peter Selinger 2001-2019
</metadata>
<g transform="translate(0.000000,240.000000) scale(0.100000,-0.100000)"
fill="#000000" stroke="none">
<path d="M1125 2380 c-17 -11 -59 -29 -95 -41 -81 -27 -141 -61 -197 -112 -49
-45 -62 -44 -38 3 9 18 15 34 12 36 -2 2 -48 -41 -101 -96 l-97 -100 -40 6
c-22 4 -56 18 -76 31 -19 13 -37 22 -40 19 -10 -10 10 -68 33 -96 l25 -29 -43
-12 c-69 -18 -135 -60 -124 -78 4 -6 17 -6 37 1 32 11 109 -4 109 -21 0 -14
-66 -23 -107 -15 -35 7 -37 6 -24 -9 7 -10 19 -17 27 -17 7 0 16 -9 19 -20 3
-11 13 -27 21 -35 14 -13 14 -16 -1 -21 -25 -10 -65 13 -65 36 0 26 -15 25
-34 -2 -24 -34 -19 -69 14 -110 l30 -37 -47 -6 c-104 -13 -123 -17 -128 -25
-2 -4 16 -10 40 -12 33 -4 55 -15 84 -41 l40 -36 -48 -44 c-26 -24 -53 -46
-61 -49 -8 -3 -12 -9 -8 -12 3 -4 28 2 55 13 l48 21 -36 -34 c-20 -18 -42 -35
-49 -38 -7 -2 -11 -9 -9 -16 3 -9 12 -8 34 4 17 9 48 22 69 29 l39 14 -25 -25
c-13 -14 -32 -26 -40 -28 -52 -7 -182 -136 -138 -136 6 0 10 6 10 14 0 28 140
129 156 113 8 -8 -52 -71 -96 -102 -22 -15 -40 -35 -40 -44 0 -9 -41 -50 -91
-91 -102 -83 -129 -125 -129 -197 0 -44 3 -50 58 -103 56 -55 159 -116 237
-140 48 -16 173 -75 199 -95 17 -13 17 -19 7 -81 -7 -36 -10 -68 -8 -70 2 -3
12 20 21 51 10 32 22 52 28 49 14 -9 28 15 28 46 0 20 -2 22 -10 10 -7 -10
-10 27 -10 115 0 101 3 126 12 117 14 -14 17 -158 8 -377 -5 -119 -10 -148
-29 -189 -29 -58 -47 -67 -72 -35 -24 31 -24 76 1 140 12 28 19 53 18 54 -2 2
-33 -17 -70 -41 -75 -48 -75 -49 -140 -234 -22 -63 -44 -122 -49 -132 -9 -17
21 -18 705 -18 l716 0 6 28 c20 90 34 136 43 145 21 21 64 -26 94 -101 l29
-72 99 0 98 0 21 48 c28 62 36 140 20 197 -14 51 -67 105 -173 175 -49 33 -56
40 -32 35 77 -17 125 -43 207 -114 73 -62 90 -83 104 -123 19 -58 35 -72 23
-20 -5 20 -9 40 -9 44 0 4 -10 17 -22 29 -21 20 -21 21 -3 15 21 -8 129 -29
203 -40 l42 -6 0 109 0 109 -62 6 c-35 3 -119 10 -188 16 -135 11 -298 40
-356 65 -30 12 -35 19 -31 37 3 13 11 59 17 103 7 44 18 96 26 115 l14 35 148
0 c142 0 288 21 400 56 l32 11 0 105 c0 57 -3 103 -7 101 -79 -38 -142 -63
-212 -84 -47 -14 -123 -39 -168 -54 -58 -21 -89 -27 -109 -21 -38 10 -43 31
-7 31 43 0 139 25 231 60 46 18 82 34 80 35 -2 2 -37 -8 -78 -22 -103 -35
-177 -52 -226 -53 l-42 0 -4 48 c-5 49 15 102 39 102 17 0 28 67 14 84 -9 10
-8 15 2 19 11 4 12 16 5 59 -5 31 -6 75 -1 103 l9 50 26 -45 c14 -25 29 -60
33 -77 9 -44 20 -42 32 6 12 44 1 134 -19 159 -12 16 -11 16 12 1 34 -22 72
-80 66 -101 -7 -29 13 -21 25 10 14 35 4 110 -19 142 -33 45 -34 50 -14 50 11
0 31 -12 46 -27 14 -14 29 -23 32 -20 14 13 -56 99 -108 132 l-28 17 58 37
c31 20 77 49 102 63 48 28 112 89 116 110 1 7 5 22 9 33 4 13 -4 7 -23 -14
l-30 -35 -128 -7 c-71 -4 -130 -6 -132 -4 -2 2 13 21 32 43 20 22 36 42 36 45
0 4 -21 -3 -46 -14 -26 -11 -48 -18 -50 -16 -2 1 17 24 42 51 24 27 43 51 40
53 -2 2 -22 -4 -45 -13 -22 -9 -47 -13 -53 -10 -7 4 -24 13 -38 21 l-25 15 36
0 c47 0 99 11 99 20 0 4 -26 10 -57 13 -32 3 -87 18 -122 33 -56 24 -61 29
-41 36 37 14 140 80 140 90 0 6 -8 7 -17 3 -88 -38 -125 -46 -181 -35 -34 6
-74 22 -99 40 -43 32 -72 37 -104 20 -18 -10 -19 -10 -3 27 9 21 21 46 26 56
18 35 -3 31 -45 -10 -45 -44 -120 -86 -142 -81 -13 3 81 91 107 101 7 2 11 7
8 10 -3 3 -37 -5 -75 -19 -47 -17 -105 -28 -175 -34 -58 -4 -114 -11 -125 -15
-11 -4 -3 8 20 28 45 40 45 56 0 27z m-803 -1154 c-25 -32 -79 -81 -140 -124
-99 -71 -142 -115 -142 -145 0 -9 -5 -19 -10 -22 -18 -11 -11 49 9 80 33 51
62 80 166 163 55 44 111 92 125 107 43 47 37 1 -8 -59z m643 -126 c17 -9 51
-37 78 -63 47 -46 102 -77 138 -77 21 0 24 -11 8 -27 -8 -8 -5 -15 10 -25 12
-8 18 -19 13 -24 -4 -4 1 -2 11 6 10 7 29 33 43 56 24 40 58 64 72 50 3 -4 -2
-20 -11 -35 -32 -54 -20 -55 76 -6 32 17 50 12 66 -18 10 -19 11 -16 7 20 -3
27 1 46 9 53 25 21 43 -29 55 -150 17 -174 18 -165 -5 -165 -18 0 -21 9 -27
76 -7 79 -25 162 -27 123 -2 -34 -33 -64 -54 -52 -10 5 -25 7 -34 4 -14 -6
-14 -8 -1 -19 21 -17 29 -45 15 -51 -7 -2 -3 -5 8 -5 24 -1 55 -34 55 -57 0
-14 -8 -16 -47 -11 -59 6 -80 30 -58 63 31 47 5 53 -44 10 -29 -25 -103 -137
-96 -144 3 -3 18 6 33 20 34 32 62 42 62 23 0 -19 115 -135 134 -135 8 0 17
-3 19 -7 3 -5 -27 -9 -67 -10 -39 -1 -91 -9 -115 -17 -24 -9 -56 -16 -72 -16
-49 0 -62 -33 -47 -119 11 -63 16 -75 40 -87 39 -20 71 -17 109 11 19 14 54
34 78 46 55 27 82 17 111 -41 24 -48 23 -82 -3 -86 -10 -1 -55 -21 -99 -43
l-81 -41 -61 29 c-101 48 -216 154 -216 200 0 16 -10 44 -23 62 -13 19 -22 40
-19 47 2 7 -5 12 -18 12 -12 0 -18 5 -15 10 10 16 0 12 -25 -10 -13 -11 -33
-20 -46 -20 -20 0 -114 62 -122 80 -1 4 -14 5 -27 2 -15 -2 -27 1 -30 9 -9 27
-13 199 -4 205 5 3 9 2 9 -3 0 -4 15 -25 34 -45 19 -20 36 -43 38 -50 4 -10
13 -9 42 5 20 9 43 17 50 17 21 0 66 -58 66 -85 0 -24 25 -52 34 -37 3 5 10
37 15 72 17 103 6 125 -112 241 l-103 100 3 47 c2 26 8 49 15 51 6 2 21 14 32
26 36 38 60 39 121 5z m-539 -90 c18 0 44 -52 44 -90 0 -17 4 -29 9 -26 9 6
51 -82 51 -108 0 -10 -10 -17 -27 -17 l-28 -2 30 -5 c25 -4 27 -6 11 -11 -11
-4 -42 -3 -70 3 l-51 11 40 5 c39 5 38 5 -37 24 -65 15 -83 24 -109 54 -29 33
-31 40 -26 88 3 29 14 73 26 98 l20 46 51 -35 c29 -19 58 -35 66 -35z m193
-422 c43 -156 70 -458 41 -458 -29 0 -80 207 -80 327 0 85 10 173 20 173 4 0
13 -19 19 -42z m867 -122 c23 -18 14 -22 -64 -30 -30 -3 -79 -17 -110 -32
-107 -51 -101 -49 -117 -28 -23 30 -14 48 30 58 22 4 56 17 75 27 44 23 157
26 186 5z"/>
</g>
</svg>
